<svg width="37" height="23" viewBox="0 0 37 23" fill="none" xmlns="http://www.w3.org/2000/svg">
<path d="M36 14.374C33.6287 14.374 28.7724 14.374 28.3171 14.374C27.748 14.374 24.6179 13.5203 24.6179 10.9593C24.6179 10.006 24.6179 6.87173 24.6179 4.13008M36 14.374C36 15.1328 36 16.935 36 18.0732C36 19.4959 35.1463 20.065 34.2927 20.065C33.6098 20.065 32.3008 20.065 31.7317 20.065M36 14.374C36 6.97561 28.3171 4.13008 24.6179 4.13008M24.6179 4.13008C24.6179 3.74312 24.6179 3.36398 24.6179 2.9999C24.6179 1.89533 23.7225 1 22.6179 1H7.82927C6.72919 1 5.8374 1.89179 5.8374 2.99187V2.99187M5.8374 6.97561V12.3821M5.8374 16.3659V18.065C5.8374 19.1696 6.73283 20.065 7.8374 20.065H10.1057M15.7967 20.065H26.3252M15.2276 14.374H2.99187M16.6504 9.82114H8.68293M13.8049 4.98374H1M33.1545 15.7967C33.1545 16.6504 33.1545 17.2195 34.5772 17.2195" stroke="black" stroke-width="2" stroke-linecap="round" stroke-linejoin="round"/>
<circle cx="13.2358" cy="19.7805" r="2.13008" stroke="black" stroke-width="2"/>
<circle cx="29.1707" cy="19.7805" r="2.13008" stroke="black" stroke-width="2"/>
</svg>
