<svg width="23" height="22" viewBox="0 0 23 22" fill="none" xmlns="http://www.w3.org/2000/svg">
<path d="M2.22192 17.9453L1.36259 17.4339C1.13769 17.8118 1.18606 18.2923 1.48178 18.6178C1.77751 18.9433 2.25116 19.0374 2.64884 18.8496L2.22192 17.9453ZM4.22188 14.5849L5.08121 15.0963L5.56711 14.2798L4.77658 13.7528L4.22188 14.5849ZM10.7219 1.08489L10.8863 0.0984978L10.8608 0.0942479L10.8351 0.0913212L10.7219 1.08489ZM16.2219 12.5849L17.0028 13.2096L17.0112 13.1988L16.2219 12.5849ZM7.22188 15.5849L7.59327 14.6564L7.18885 14.4946L6.79496 14.6806L7.22188 15.5849ZM20.3804 9.19277C19.9647 8.82909 19.333 8.87121 18.9693 9.28684C18.6056 9.70248 18.6477 10.3342 19.0634 10.6979L20.3804 9.19277ZM18.7219 17.9453L18.0529 17.2021L17.6296 17.583L17.7413 18.1415L18.7219 17.9453ZM19.2219 20.4454L18.7074 21.3028C19.0468 21.5065 19.4744 21.4908 19.7979 21.2628C20.1215 21.0348 20.2801 20.6374 20.2025 20.2492L19.2219 20.4454ZM16.7219 18.9454L17.2364 18.0879L16.8388 17.8493L16.3999 17.9986L16.7219 18.9454ZM11.4848 17.2989C11.1278 16.8775 10.4968 16.8254 10.0754 17.1824C9.65406 17.5394 9.6019 18.1704 9.95892 18.5918L11.4848 17.2989ZM4.77658 13.7528C2.20046 12.0354 1.42954 8.8836 2.40886 6.25691C3.35971 3.70658 6.02517 1.55616 10.6087 2.07846L10.8351 0.0913212C5.41859 -0.525899 1.83403 2.07368 0.534872 5.55822C-0.735817 8.96641 0.243265 13.1343 3.66718 15.4169L4.77658 13.7528ZM10.5575 2.07128C13.2621 2.52207 15.2243 4.08468 16.1349 5.95929C17.0364 7.81545 16.941 10.0315 15.4325 11.9709L17.0112 13.1988C19.0028 10.6383 19.1573 7.60431 17.9339 5.08548C16.7194 2.5851 14.1816 0.647722 10.8863 0.0984978L10.5575 2.07128ZM15.441 11.9602C14.8549 12.6929 13.7216 13.7373 12.2977 14.4043C10.8909 15.0633 9.26914 15.3267 7.59327 14.6564L6.85049 16.5133C9.17461 17.443 11.3862 17.0398 13.1461 16.2154C14.8888 15.3991 16.2556 14.1435 17.0028 13.2096L15.441 11.9602ZM3.08125 18.4568L5.08121 15.0963L3.36255 14.0735L1.36259 17.4339L3.08125 18.4568ZM6.79496 14.6806L1.79501 17.0411L2.64884 18.8496L7.64879 16.4892L6.79496 14.6806ZM19.0634 10.6979C19.5711 11.1422 20.1592 12.0068 20.2236 13.0921C20.2851 14.1273 19.8804 15.5573 18.0529 17.2021L19.3908 18.6886C21.5634 16.7334 22.3254 14.7468 22.2201 12.9736C22.1179 11.2506 21.206 9.91521 20.3804 9.19277L19.0634 10.6979ZM17.7413 18.1415L18.2413 20.6415L20.2025 20.2492L19.7025 17.7492L17.7413 18.1415ZM19.7364 19.5879L17.2364 18.0879L16.2074 19.8028L18.7074 21.3028L19.7364 19.5879ZM16.3999 17.9986C15.8351 18.1907 14.8662 18.3867 13.8841 18.3255C12.9002 18.2642 12.0429 17.9575 11.4848 17.2989L9.95892 18.5918C11.0009 19.8215 12.4769 20.2417 13.7597 20.3216C15.0442 20.4017 16.2754 20.1535 17.0439 19.8921L16.3999 17.9986Z" fill="black"/>
</svg>
